<?xml version="1.0" encoding="utf-8"?>
<!-- Generator: Adobe Illustrator 15.0.0, SVG Export Plug-In . SVG Version: 6.00 Build 0)  -->
<!DOCTYPE svg PUBLIC "-//W3C//DTD SVG 1.1//EN" "http://www.w3.org/Graphics/SVG/1.1/DTD/svg11.dtd">
<svg version="1.1" id="Layer_1" xmlns="http://www.w3.org/2000/svg" xmlns:xlink="http://www.w3.org/1999/xlink" x="0px" y="0px"
	 width="541.225px" height="841.89px" viewBox="0 0 541.225 841.89" enable-background="new 0 0 541.225 841.89"
	 xml:space="preserve">
<rect x="221.063" y="573.128" fill="#FCFCFC" stroke="#BABABA" stroke-miterlimit="10" width="115.998" height="67.207"/>
<rect x="225.063" y="567.968" fill="#FFFFFF" stroke="#BABABA" stroke-miterlimit="10" width="115.999" height="67.207"/>
<rect x="44.077" y="178.513" fill="#FCFCFC" stroke="#BABABA" stroke-miterlimit="10" width="115.999" height="67.207"/>
<rect x="48.077" y="173.353" fill="#FFFFFF" stroke="#BABABA" stroke-miterlimit="10" width="115.999" height="67.207"/>
<text transform="matrix(1 0 0 1 17.595 26.5552)" enable-background="new    "><tspan x="0" y="0" font-family="'MyriadPro-Regular'" font-size="18">Unlogo Outline | Aug 26 2010</tspan><tspan x="0" y="14.4" font-family="'MyriadPro-Regular'" font-size="12">Jeff Crouse</tspan></text>
<rect x="231.062" y="67.619" fill="none" stroke="#000000" stroke-miterlimit="10" width="116" height="67.206"/>
<text transform="matrix(1 0 0 1 235.7737 79.5303)" font-family="'MyriadPro-Regular'" font-size="10">[video source]</text>
<rect x="231.062" y="161.94" fill="none" stroke="#000000" stroke-miterlimit="10" width="116" height="67.207"/>
<text transform="matrix(1 0 0 1 239.0623 175.9614)" font-family="'MyriadPro-Regular'" font-size="10">Image input</text>
<rect x="52.576" y="168.079" fill="#FFFFFF" stroke="#000000" stroke-miterlimit="10" width="116" height="67.207"/>
<text transform="matrix(1 0 0 1 61.0764 180.5132)"><tspan x="0" y="0" font-family="'MyriadPro-Regular'" font-size="10">Logo[] allLogos</tspan><tspan x="0" y="12" font-family="'MyriadPro-Regular'" font-size="10">Image logo</tspan><tspan x="0" y="24" font-family="'MyriadPro-Regular'" font-size="10">Image replacement</tspan></text>
<rect x="144.88" y="342.925" fill="none" stroke="#000000" stroke-miterlimit="10" width="116" height="67.208"/>
<text transform="matrix(1 0 0 1 151.8796 356.9463)" font-family="'MyriadPro-Regular'" font-size="10">MatchSet</text>
<g>
	<path fill="none" d="M257.485,274.74"/>
</g>
<g>
	<path fill="none" d="M168.576,168.079"/>
</g>
<rect x="312.639" y="342.925" fill="none" stroke="#000000" stroke-miterlimit="10" width="116" height="67.207"/>
<text transform="matrix(1 0 0 1 319.6394 356.9463)" font-family="'MyriadPro-Regular'" font-size="10">OpticalFlow</text>
<polygon fill="none" stroke="#000000" stroke-miterlimit="10" points="312.639,274.74 285.063,295.318 257.485,274.74 
	285.063,254.164 "/>
<g>
	<g>
		<line fill="none" stroke="#000000" stroke-miterlimit="10" x1="285.062" y1="228.999" x2="285.062" y2="248.889"/>
		<g>
			<path d="M285.062,254.924c-1.054-2.84-2.852-6.363-4.756-8.547l4.756,1.72l4.755-1.72
				C287.913,248.561,286.115,252.084,285.062,254.924z"/>
		</g>
	</g>
</g>
<g>
	<g>
		<line fill="none" stroke="#161111" stroke-miterlimit="10" x1="257.485" y1="274.74" x2="217.372" y2="335.896"/>
		<g>
			<path fill="#161111" d="M214.062,340.942c0.677-2.953,1.105-6.885,0.711-9.755l3.033,4.047l4.92,1.169
				C219.936,337.185,216.5,339.145,214.062,340.942z"/>
		</g>
	</g>
</g>
<g>
	<g>
		<line fill="none" stroke="#161111" stroke-miterlimit="10" x1="122.576" y1="235.286" x2="189.58" y2="337.872"/>
		<g>
			<path fill="#161111" d="M192.88,342.925c-2.436-1.801-5.867-3.768-8.656-4.556l4.923-1.16l3.04-4.041
				C191.787,336.039,192.208,339.972,192.88,342.925z"/>
		</g>
	</g>
</g>
<g>
	<g>
		<line fill="none" stroke="#161111" stroke-miterlimit="10" x1="312.639" y1="274.74" x2="353.7" y2="335.931"/>
		<g>
			<path fill="#161111" d="M357.062,340.942c-2.457-1.771-5.913-3.695-8.712-4.448l4.908-1.221l2.989-4.078
				C355.884,334.07,356.354,337.998,357.062,340.942z"/>
		</g>
	</g>
</g>
<rect x="312.639" y="437.943" fill="none" stroke="#000000" stroke-miterlimit="10" width="116" height="67.207"/>
<text transform="matrix(1 0 0 1 319.6394 453.7397)" font-family="'MyriadPro-Regular'" font-size="10">Point2f offset</text>
<rect x="229.061" y="564.745" fill="#FFFFFF" stroke="#000000" stroke-miterlimit="10" width="116" height="67.207"/>
<text transform="matrix(1 0 0 1 237.0613 577.3354)"><tspan x="0" y="0" font-family="'MyriadPro-Regular'" font-size="10">Logo*[] presentLogos</tspan><tspan x="0" y="12" font-family="'MyriadPro-Regular'" font-size="10">Image replacement</tspan><tspan x="0" y="24" font-family="'MyriadPro-Regular'" font-size="10">Point2f location</tspan></text>
<polygon fill="none" stroke="#000000" stroke-miterlimit="10" points="230.457,465.622 202.881,486.2 175.302,465.622 
	202.881,445.045 "/>
<g>
	<g>
		<line fill="none" stroke="#000000" stroke-miterlimit="10" x1="202.88" y1="410.984" x2="202.881" y2="439.01"/>
		<g>
			<path d="M202.881,445.045c-1.054-2.84-2.852-6.363-4.756-8.547l4.756,1.719l4.755-1.721
				C205.731,438.682,203.933,442.206,202.881,445.045z"/>
		</g>
	</g>
</g>
<g>
	<g>
		<line fill="none" stroke="#000000" stroke-miterlimit="10" x1="365.639" y1="410.131" x2="365.639" y2="431.908"/>
		<g>
			<path d="M365.639,437.943c-1.054-2.84-2.852-6.363-4.756-8.547l4.756,1.72l4.755-1.72
				C368.49,431.58,366.692,435.103,365.639,437.943z"/>
		</g>
	</g>
</g>
<g>
	<g>
		<line fill="none" stroke="#161111" stroke-miterlimit="10" x1="289.062" y1="135.029" x2="289.062" y2="154.856"/>
		<g>
			<path fill="#161111" d="M289.062,160.891c-1.054-2.84-2.852-6.363-4.756-8.547l4.756,1.72l4.755-1.72
				C291.913,154.528,290.115,158.051,289.062,160.891z"/>
		</g>
	</g>
</g>
<text transform="matrix(1 0 0 1 100.0764 433.9897)" font-family="'MyriadPro-Regular'" font-size="10">logo is found in image</text>
<text transform="matrix(1 0 0 1 295.0623 250.0288)" font-family="'MyriadPro-Regular'" font-size="10">presentLogos count=0 or frame%10=0</text>
<text transform="matrix(1 0 0 1 225.0623 295.3179)" font-family="'MyriadPro-Regular'" font-size="10">yes</text>
<text transform="matrix(1 0 0 1 341.0623 302.4414)" font-family="'MyriadPro-Regular'" font-size="10">no</text>
<rect x="229.061" y="660.752" fill="none" stroke="#000000" stroke-miterlimit="10" width="116" height="67.207"/>
<text transform="matrix(1 0 0 1 232.0613 672.9683)" font-family="'MyriadPro-Regular'" font-size="10">Image output</text>
<g>
	<g>
		<line fill="none" stroke="#000000" stroke-miterlimit="10" x1="230.457" y1="465.622" x2="284.069" y2="559.504"/>
		<g>
			<path d="M287.061,564.746c-2.323-1.943-5.632-4.111-8.369-5.064l4.983-0.864l3.276-3.852
				C286.381,557.806,286.567,561.757,287.061,564.746z"/>
		</g>
	</g>
</g>
<g>
	<g>
		<line fill="none" stroke="#000000" stroke-miterlimit="10" x1="377.639" y1="505.15" x2="319.285" y2="560.588"/>
		<g>
			<path d="M314.909,564.746c1.333-2.72,2.649-6.45,2.921-9.335l2.029,4.633l4.522,2.263
				C321.486,562.429,317.694,563.553,314.909,564.746z"/>
		</g>
	</g>
</g>
<text transform="matrix(1 0 0 1 256.7595 496.6733)" font-family="'MyriadPro-Regular'" font-size="10">yes</text>
<g>
	<g>
		<line fill="none" stroke="#000000" stroke-miterlimit="10" x1="287.061" y1="631.952" x2="287.061" y2="654.718"/>
		<g>
			<path d="M287.061,660.753c-1.054-2.84-2.852-6.363-4.756-8.548l4.756,1.721l4.755-1.721
				C289.912,654.39,288.114,657.914,287.061,660.753z"/>
		</g>
	</g>
</g>
<rect x="229.061" y="746.625" fill="none" stroke="#000000" stroke-miterlimit="10" width="116" height="67.205"/>
<text transform="matrix(1 0 0 1 233.7727 758.5366)" font-family="'MyriadPro-Regular'" font-size="10">[encoder or screen]</text>
<g>
	<g>
		<line fill="none" stroke="#000000" stroke-miterlimit="10" x1="287.061" y1="727.959" x2="287.061" y2="740.59"/>
		<g>
			<path d="M287.061,746.625c-1.054-2.84-2.852-6.363-4.756-8.547l4.756,1.72l4.755-1.72
				C289.912,740.262,288.114,743.786,287.061,746.625z"/>
		</g>
	</g>
</g>
</svg>
